<?xml version="1.0" encoding="utf-8"?>
<!-- Generator: Adobe Illustrator 24.0.1, SVG Export Plug-In . SVG Version: 6.00 Build 0)  -->
<svg version="1.1" id="Layer_1" xmlns="http://www.w3.org/2000/svg" xmlns:xlink="http://www.w3.org/1999/xlink" x="0px" y="0px"
	 viewBox="0 0 32 32" style="enable-background:new 0 0 32 32;" xml:space="preserve">
<style type="text/css">
	.st0{fill:#F7F7F7;}
</style>
<path class="st0" d="M12.8,3.3L12.8,3.3C12.5,3,12.1,2.9,11.7,3c-0.4,0.1-0.7,0.3-0.9,0.7C10.3,4.6,8,9,6.4,13.7
	c-2.1,6.2-2.1,10.3,0,12.2c1,0.9,1.9,1.1,2.7,1.1c0.3,0,0.6,0,0.9-0.1c2.6-0.7,4.6-4.1,6-7.1c1.8,2.1,4.8,5,7.6,5.1
	c0.7,0,1.3-0.1,1.8-0.4c0.6-0.3,1.1-0.7,1.5-1.3C30.7,18,17.1,6.6,12.8,3.3z M23.7,22.2L23.7,22.2c-1.9,0-5.2-3.4-6.9-5.8
	c-0.3-0.4-0.8-0.6-1.3-0.6c-0.2,0-0.3,0.1-0.5,0.1c-0.3,0.2-0.5,0.4-0.7,0.8c-1,2.9-3.2,7.2-4.9,7.6c-0.2,0-0.5,0.1-1.1-0.4
	c-2-1.9,0.6-10.3,4.2-17.4c8.1,6.6,13.5,13.3,12.3,15.1C24.3,22.1,24,22.2,23.7,22.2z"/>
</svg>
